<?xml version="1.0" encoding="UTF-8"?>
<svg id="b" data-name="Layer 2" xmlns="http://www.w3.org/2000/svg" width="106" height="110.161" viewBox="0 0 106 110.161">
  <g id="c" data-name="Layer 1">
    <g>
      <g>
        <path d="M53,108.661C24.603,108.661,1.5,85.558,1.5,57.162S24.603,5.661,53,5.661s51.5,23.103,51.5,51.5-23.103,51.5-51.5,51.5Z" fill="#0f1b4d"/>
        <path d="M53,7.161c27.614,0,50,22.386,50,50s-22.386,50-50,50S3,84.776,3,57.161,25.386,7.161,53,7.161M53,4.161C23.776,4.161,0,27.937,0,57.161s23.776,53,53,53,53-23.776,53-53S82.224,4.161,53,4.161h0Z" fill="#87b7e8"/>
      </g>
      <path d="M61.531,17.188c-.452-3.487-3.037-6.307-6.404-7.106V1.944c0-1.075-.87-1.944-1.944-1.944s-1.944.87-1.944,1.944v8.137c-3.367.8-5.953,3.619-6.404,7.106-18.525,3.864-32.486,20.317-32.486,39.974,0,22.516,18.318,40.834,40.834,40.834s40.834-18.318,40.834-40.834c0-19.656-13.961-36.109-32.486-39.974h0ZM76.205,46.832c-3.464-.665-7.25-1.165-11.195-1.497-.332-3.943-.834-7.731-1.497-11.195,3.5.662,6.786,1.653,9.776,2.917,1.264,2.989,2.253,6.276,2.917,9.776ZM78.349,39.626c4.942,2.991,8.619,6.846,10.458,11.194-2.263-1.208-5.167-2.236-8.509-3.081-.459-2.827-1.111-5.546-1.948-8.112h0ZM77.165,57.161c0,2.139-.126,4.235-.353,6.276-3.26.69-7.108,1.269-11.532,1.65.143-2.616.218-5.272.218-7.926s-.075-5.311-.218-7.926c4.423.382,8.272.961,11.532,1.65.227,2.04.353,4.137.353,6.276h0ZM53.183,65.588c-2.902,0-5.634-.08-8.203-.224-.143-2.568-.223-5.301-.223-8.202s.08-5.634.223-8.202c2.569-.144,5.301-.224,8.203-.224s5.634.08,8.202.224c.143,2.568.224,5.301.224,8.202s-.08,5.634-.224,8.202c-2.568.144-5.301.224-8.202.224ZM61.109,69.259c-.382,4.423-.961,8.272-1.65,11.532-2.04.227-4.137.353-6.276.353s-4.234-.126-6.276-.353c-.69-3.26-1.269-7.108-1.652-11.532,2.616.143,5.273.218,7.927.218s5.311-.075,7.926-.218ZM29.201,57.161c0-2.139.126-4.235.353-6.276,3.26-.69,7.109-1.269,11.532-1.65-.144,2.615-.218,5.272-.218,7.926s.074,5.311.218,7.926c-4.423-.382-8.272-.961-11.532-1.65-.227-2.04-.353-4.137-.353-6.276h0ZM45.256,45.064c.382-4.423.962-8.272,1.652-11.532,2.042-.227,4.137-.353,6.276-.353s4.235.126,6.276.353c.69,3.26,1.269,7.109,1.65,11.532-2.615-.143-5.272-.218-7.926-.218s-5.311.075-7.927.218h0ZM62.607,30.047c-.845-3.343-1.873-6.247-3.081-8.51,4.348,1.838,8.203,5.516,11.194,10.459-2.568-.836-5.286-1.489-8.112-1.948h0ZM58.481,29.533c-1.736-.154-3.501-.242-5.298-.242s-3.562.088-5.298.242c1.734-6.164,3.833-9.317,5.298-9.317s3.562,3.153,5.298,9.317ZM46.84,21.537c-1.208,2.263-2.235,5.167-3.08,8.51-2.829.459-5.546,1.112-8.112,1.948,2.989-4.942,6.846-8.619,11.193-10.459h0ZM42.855,34.14c-.666,3.464-1.165,7.25-1.497,11.195-3.945.332-7.731.834-11.195,1.497.662-3.5,1.653-6.786,2.917-9.776,2.988-1.264,6.274-2.254,9.776-2.917h0ZM26.069,47.737c-3.343.845-6.247,1.873-8.51,3.081,1.838-4.348,5.516-8.203,10.459-11.194-.836,2.568-1.489,5.286-1.948,8.112h0ZM25.554,51.863c-.154,1.736-.242,3.501-.242,5.298s.088,3.562.242,5.298c-6.164-1.736-9.317-3.832-9.317-5.298s3.153-3.562,9.317-5.298ZM26.069,66.586c.458,2.827,1.111,5.544,1.948,8.112-4.942-2.991-8.619-6.846-10.459-11.194,2.265,1.207,5.167,2.235,8.51,3.081ZM30.162,67.491c3.464.665,7.25,1.165,11.195,1.497.332,3.945.832,7.731,1.497,11.195-3.501-.664-6.786-1.652-9.777-2.917-1.263-2.989-2.253-6.276-2.915-9.776ZM43.76,84.275c.845,3.343,1.873,6.246,3.08,8.509-4.348-1.838-8.203-5.516-11.194-10.458,2.568.837,5.286,1.489,8.114,1.948h0ZM47.885,84.79c1.736.154,3.501.242,5.298.242s3.562-.088,5.298-.242c-1.736,6.163-3.832,9.317-5.298,9.317s-3.564-3.154-5.298-9.317ZM59.526,92.785c1.208-2.263,2.236-5.167,3.081-8.509,2.827-.459,5.544-1.111,8.112-1.948-2.991,4.942-6.847,8.619-11.194,10.458h0ZM63.512,80.183c.665-3.464,1.165-7.25,1.497-11.195,3.945-.332,7.731-.834,11.195-1.497-.664,3.5-1.652,6.786-2.917,9.776-2.989,1.264-6.276,2.253-9.776,2.917ZM80.297,66.586c3.342-.845,6.246-1.873,8.509-3.081-1.838,4.348-5.517,8.203-10.458,11.194.837-2.568,1.489-5.286,1.948-8.112ZM80.812,62.46c.153-1.736.242-3.501.242-5.298s-.088-3.562-.242-5.298c6.163,1.736,9.317,3.832,9.317,5.298s-3.154,3.562-9.317,5.298ZM86.377,40.96c-2.787-2.654-6.235-4.962-10.184-6.808-1.846-3.95-4.155-7.397-6.808-10.184,7.376,3.614,13.378,9.616,16.992,16.992ZM53.183,13.734c1.889,0,3.508,1.162,4.19,2.807-1.377-.141-2.775-.214-4.19-.214s-2.812.073-4.19.214c.681-1.645,2.301-2.807,4.19-2.807ZM36.982,23.966c-2.654,2.788-4.962,6.235-6.808,10.185-3.95,1.846-7.397,4.155-10.185,6.808,3.615-7.376,9.617-13.378,16.994-16.994h0ZM19.989,73.363c2.787,2.654,6.235,4.962,10.184,6.808,1.846,3.95,4.155,7.397,6.808,10.184-7.376-3.614-13.378-9.616-16.992-16.992ZM69.385,90.355c2.654-2.787,4.962-6.235,6.808-10.184,3.95-1.846,7.397-4.155,10.184-6.808-3.614,7.376-9.616,13.378-16.992,16.992Z" fill="#fff"/>
      <g>
        <path d="M78.341,64.014c-1.192,0-2.171-.78-2.437-1.941l-2.911-12.721-12.72-2.911c-1.162-.266-1.942-1.245-1.942-2.438s.781-2.171,1.943-2.437l12.72-2.912,2.911-12.719c.266-1.162,1.245-1.943,2.437-1.943s2.171.781,2.437,1.943l2.911,12.719,12.72,2.912c1.162.266,1.942,1.245,1.942,2.437s-.781,2.172-1.943,2.438l-12.72,2.911-2.911,12.72c-.266,1.162-1.245,1.942-2.437,1.942Z" fill="#76a2db"/>
        <path d="M78.341,24.992c.642,0,1.285.389,1.462,1.166l3.051,13.332,13.332,3.051c1.554.355,1.554,2.569,0,2.925l-13.332,3.051-3.051,13.332c-.178.777-.82,1.165-1.462,1.165s-1.285-.388-1.462-1.165l-3.051-13.332-13.332-3.051c-1.554-.356-1.554-2.569,0-2.925l13.332-3.051,3.051-13.332c.178-.777.82-1.166,1.462-1.166M78.341,22.992c-1.643,0-3.046,1.119-3.412,2.719l-2.771,12.109-12.108,2.771c-1.601.366-2.719,1.769-2.719,3.411,0,1.643,1.118,3.046,2.719,3.413l12.108,2.771,2.771,12.108c.366,1.601,1.77,2.719,3.412,2.719s3.046-1.118,3.412-2.719l2.771-12.108,12.108-2.771c1.602-.367,2.72-1.77,2.719-3.413,0-1.642-1.119-3.045-2.72-3.411l-12.108-2.771-2.771-12.109c-.366-1.601-1.77-2.719-3.412-2.719h0Z" fill="#0f1b4d"/>
      </g>
      <g>
        <path d="M29.298,49.425c-.917,0-1.671-.601-1.876-1.494l-1.74-7.602-7.601-1.74c-.894-.204-1.494-.957-1.495-1.874,0-.918.6-1.672,1.494-1.877l7.602-1.739,1.74-7.601c.205-.895.958-1.496,1.876-1.496s1.671.602,1.876,1.496l1.74,7.601,7.601,1.739c.895.205,1.495.959,1.495,1.877,0,.917-.601,1.67-1.495,1.874l-7.601,1.74-1.74,7.601c-.205.895-.958,1.495-1.876,1.495Z" fill="#76a2db"/>
        <path d="M29.298,25.003c.396,0,.792.239.901.718l1.879,8.213,8.213,1.88c.958.219.958,1.583,0,1.802l-8.213,1.879-1.879,8.213c-.109.479-.505.718-.901.718s-.792-.24-.901-.718l-1.88-8.213-8.213-1.879c-.957-.219-.957-1.583,0-1.802l8.213-1.88,1.88-8.213c.109-.479.505-.718.901-.718M29.298,23.003c-1.373,0-2.545.934-2.851,2.272l-1.6,6.989-6.99,1.6c-1.337.306-2.271,1.478-2.271,2.85,0,1.373.934,2.545,2.271,2.852l6.99,1.599,1.6,6.99c.306,1.337,1.478,2.272,2.851,2.272s2.544-.934,2.851-2.272l1.599-6.99,6.99-1.599c1.338-.307,2.272-1.479,2.272-2.852,0-1.372-.935-2.544-2.273-2.85l-6.989-1.6-1.599-6.99c-.307-1.337-1.479-2.271-2.851-2.271h0Z" fill="#0f1b4d"/>
      </g>
      <g>
        <path d="M60.186,96.139c-.917,0-1.671-.601-1.876-1.494l-1.74-7.602-7.601-1.74c-.894-.204-1.495-.958-1.495-1.876s.601-1.671,1.495-1.875l7.601-1.74,1.74-7.601c.205-.895.958-1.495,1.876-1.495s1.671.601,1.876,1.494l1.74,7.602,7.601,1.74c.894.204,1.495.958,1.495,1.875s-.601,1.672-1.495,1.876l-7.601,1.74-1.74,7.601c-.205.895-.958,1.495-1.876,1.495Z" fill="#76a2db"/>
        <path d="M60.186,71.716c.396,0,.792.24.901.718l1.88,8.212,8.212,1.88c.958.219.958,1.583,0,1.802l-8.212,1.88-1.88,8.212c-.109.479-.505.718-.901.718s-.792-.24-.901-.718l-1.88-8.212-8.212-1.88c-.958-.219-.958-1.583,0-1.802l8.212-1.88,1.88-8.212c.109-.479.505-.718.901-.718M60.186,69.716c-1.372,0-2.544.934-2.851,2.272l-1.6,6.989-6.989,1.6c-1.338.307-2.272,1.479-2.272,2.851s.934,2.544,2.272,2.851l6.989,1.6,1.6,6.989c.307,1.338,1.479,2.272,2.851,2.272s2.544-.934,2.851-2.272l1.6-6.989,6.989-1.6c1.338-.307,2.272-1.479,2.272-2.851s-.934-2.544-2.272-2.851l-6.989-1.6-1.6-6.989c-.307-1.338-1.479-2.272-2.851-2.272h0Z" fill="#0f1b4d"/>
      </g>
    </g>
  </g>
</svg>